<?xml version="1.0" encoding="UTF-8" standalone="no"?>
<!DOCTYPE svg PUBLIC "-//W3C//DTD SVG 1.0//EN"
 "http://www.w3.org/TR/2001/REC-SVG-20010904/DTD/svg10.dtd" [
 <!ATTLIST svg xmlns:xlink CDATA #FIXED "http://www.w3.org/1999/xlink">
]>
<!-- Generated by Graphviz version 2.20.2 (Tue Mar &#160;2 21:46:26 UTC 2010)
     For user: (arnold) Arnold Daniels,,, -->
<!-- Title: G Pages: 1 -->
<svg width="570pt" height="254pt"
 viewBox="0.00 0.00 570.00 254.00" xmlns="http://www.w3.org/2000/svg" xmlns:xlink="http://www.w3.org/1999/xlink">
<g id="graph0" class="graph" transform="scale(1 1) rotate(0) translate(4 250)">
<title>G</title>
<polygon style="fill:white;stroke:white;" points="-4,4 -4,-250 566,-250 566,4 -4,4"/>
<g id="cluster2" class="cluster"><title>cluster_default</title>
<polyline style="fill:none;stroke:none;" points="398,-16 542,-16 "/>
<path style="fill:none;stroke:none;" d="M542,-16C548,-16 554,-22 554,-28"/>
<polyline style="fill:none;stroke:none;" points="554,-28 554,-226 "/>
<path style="fill:none;stroke:none;" d="M554,-226C554,-232 548,-238 542,-238"/>
<polyline style="fill:none;stroke:none;" points="542,-238 398,-238 "/>
<path style="fill:none;stroke:none;" d="M398,-238C392,-238 386,-232 386,-226"/>
<polyline style="fill:none;stroke:none;" points="386,-226 386,-28 "/>
<path style="fill:none;stroke:none;" d="M386,-28C386,-22 392,-16 398,-16"/>
</g>
<!-- \\DBQuery_SplitterTest -->
<g id="node2" class="node"><title>\\DBQuery_SplitterTest</title>
<a xlink:href="test.src.DBQuery.SplitterTest.html" xlink:title="DBQuery_SplitterTest" target="_parent">
<polygon style="fill:none;stroke:black;" points="545,-222 395,-222 395,-186 545,-186 545,-222"/>
<text text-anchor="middle" x="470" y="-201.1" style="font-family:Courier;font-size:11.00;">DBQuery_SplitterTest</text>
</a>
</g>
<!-- \\PHPUnit_Framework_TestCase -->
<g id="node7" class="node"><title>\\PHPUnit_Framework_TestCase</title>
<ellipse style="fill:none;stroke:black;" cx="161" cy="-177" rx="161.213" ry="18"/>
<text text-anchor="middle" x="161" y="-172.9" style="font-family:Times New Roman;font-size:14.00;fill:gray;">\PHPUnit_Framework_TestCase</text>
</g>
<!-- \\DBQuery_SplitterTest&#45;&gt;\\PHPUnit_Framework_TestCase -->
<g id="edge3" class="edge"><title>\\DBQuery_SplitterTest&#45;&gt;\\PHPUnit_Framework_TestCase</title>
<path style="fill:none;stroke:black;" d="M394,-197C366,-194 332,-192 299,-189"/>
<polygon style="fill:none;stroke:black;" points="299.299,-185.512 289,-188 298.602,-192.478 299.299,-185.512"/>
</g>
<!-- \\DBQueryTest -->
<g id="node3" class="node"><title>\\DBQueryTest</title>
<a xlink:href="test.src.DBQueryTest.html" xlink:title="DBQueryTest" target="_parent">
<polygon style="fill:none;stroke:black;" points="515,-168 425,-168 425,-132 515,-132 515,-168"/>
<text text-anchor="middle" x="470" y="-147.1" style="font-family:Courier;font-size:11.00;">DBQueryTest</text>
</a>
</g>
<!-- \\DBQueryTest&#45;&gt;\\PHPUnit_Framework_TestCase -->
<g id="edge5" class="edge"><title>\\DBQueryTest&#45;&gt;\\PHPUnit_Framework_TestCase</title>
<path style="fill:none;stroke:black;" d="M425,-154C391,-157 343,-161 297,-165"/>
<polygon style="fill:none;stroke:black;" points="296.602,-161.522 287,-166 297.299,-168.488 296.602,-161.522"/>
</g>
<!-- \\DBQuery_Splitter -->
<g id="node4" class="node"><title>\\DBQuery_Splitter</title>
<a xlink:href="src.DBQuery.Splitter.html" xlink:title="DBQuery_Splitter" target="_parent">
<polygon style="fill:none;stroke:black;" points="532,-114 408,-114 408,-78 532,-78 532,-114"/>
<text text-anchor="middle" x="470" y="-93.1" style="font-family:Courier;font-size:11.00;">DBQuery_Splitter</text>
</a>
</g>
<!-- \\DBQuery -->
<g id="node5" class="node"><title>\\DBQuery</title>
<a xlink:href="src.DBQuery.html" xlink:title="DBQuery" target="_parent">
<polygon style="fill:none;stroke:black;" points="501,-60 439,-60 439,-24 501,-24 501,-60"/>
<text text-anchor="middle" x="470" y="-39.1" style="font-family:Courier;font-size:11.00;">DBQuery</text>
</a>
</g>
</g>
</svg>
